<?xml version="1.0" encoding="UTF-8" standalone="no"?>
<svg width="90px" height="90px" viewBox="0 0 90 90" version="1.1" xmlns="http://www.w3.org/2000/svg" xmlns:xlink="http://www.w3.org/1999/xlink" xmlns:sketch="http://www.bohemiancoding.com/sketch/ns">
    <!-- Generator: Sketch 3.3.2 (12043) - http://www.bohemiancoding.com/sketch -->
    <title>Artboard 1</title>
    <desc>Created with Sketch.</desc>
    <defs></defs>
    <g id="Page-1" stroke="none" stroke-width="1" fill="none" fill-rule="evenodd" sketch:type="MSPage">
        <g id="Artboard-1" sketch:type="MSArtboardGroup" fill="#000000">
            <path d="M69.5848051,7 C63.2023029,7 58.5048609,10.419945 58.3464194,10.538527 C58.0355153,10.7418105 27.1623405,30.9097204 20.6552773,35.4437384 C13.685844,40.3016148 16.3355042,48.1898096 16.345469,48.1898096 C16.3584234,48.2615567 16.9214388,51.3327311 17.5850994,55.0864994 C15.1207859,56.6091322 2.79224294,64.2272789 1.78977655,64.8171995 C0.943758687,65.3144468 0.391704628,66.0089985 0.191410646,66.8251218 C0.0817970246,67.2715482 -0.445344847,69.1798217 0.920839475,71.3790695 C1.35829747,72.0855791 1.99604946,72.5459564 2.7563694,72.7173522 C2.99552639,72.770166 3.23368689,72.7940817 3.46985442,72.7940817 C4.8001652,72.7940817 5.98698178,72.0596705 6.12150758,71.9729761 L19.1286585,64.1664932 C19.4365732,66.0907105 19.6607828,67.645231 19.7185791,68.3965825 C19.7345229,68.7333953 20.0643603,71.7447804 26.4946939,73.9559861 C26.926173,74.1034663 27.1882492,74.6216398 27.3307469,75.0282066 C27.8867869,76.6066428 27.5788723,78.8387747 27.3566556,79.1925278 C26.5764059,80.3364954 25.6297428,83.4315855 26.6023146,85.2730943 C26.9441098,85.9218077 27.6635737,86.6950819 29.1443541,86.6950819 C29.270908,86.6950819 29.4064303,86.689103 29.5459386,86.6761487 C30.4437738,86.5974262 31.1173993,86.2456661 31.5468854,85.6348193 C32.4626574,84.3344031 32.1278376,82.1122361 31.2409637,78.7122208 C30.50157,75.877214 31.9713891,75.0112664 34.8542273,73.6012366 C35.5906316,73.2425011 36.3509515,72.8708113 37.0873557,72.4253814 C37.7141464,72.0437267 76.2901693,48.9620874 76.6797959,48.7299058 L77.5557084,48.2057534 L76.833255,47.4833 C73.9065713,44.5566163 76.0081634,42.0893133 76.2552922,41.8202617 L76.6917538,41.3539055 L76.3290323,40.8257672 C73.6285513,36.8866522 77.943342,33.6929099 78.1306817,33.5593806 L78.542231,33.2604343 L78.4465682,32.7621906 C78.1944569,31.4518096 78.3837895,30.3367401 79.0075906,29.4458803 C80.2462246,27.6850869 82.8052044,27.2645692 82.8311131,27.2605833 L83.7708008,27.1131031 L83.4618896,26.2132749 C83.2546202,25.614386 83.2914903,25.0762827 83.5744927,24.5710636 C84.4185176,23.065371 87.1917422,22.1625534 88.1892262,21.9403366 L89.239524,21.7081551 L88.7143751,20.7714568 C82.3129396,9.38858047 74.7784978,7 69.5848051,7 Z M1.7379592,67.2007976 C1.83461849,66.807185 2.12359985,66.4683793 2.59593491,66.1883663 C3.56452073,65.6213649 14.4820375,58.8751447 17.8800597,56.7745492 C18.136157,58.2413787 18.3972367,59.7520537 18.6393832,61.1949676 L5.28146865,69.2137022 C4.94664886,69.4259541 3.90432296,69.9401416 3.09916109,69.7567879 C2.75138696,69.6780654 2.48731778,69.4787679 2.27008351,69.1309938 C1.79276601,68.3636984 1.61240178,67.7149851 1.7379592,67.2007976 L1.7379592,67.2007976 Z M82.7613589,26.4713652 C82.7613589,26.4713652 76.6558802,27.401088 77.7171394,32.9106672 C77.7171394,32.9106672 72.5393905,36.6275655 75.7261574,41.275183 C75.7261574,41.275183 72.738688,44.46195 76.3230534,48.0453189 C75.7729923,47.8589758 75.2677732,47.6666537 74.7814873,47.4723386 C63.8410513,43.0867973 68.8035589,36.7441545 68.8035589,36.7441545 C66.9620501,32.2639468 71.0446593,28.6287605 71.0446593,28.6287605 C71.1931359,22.8032948 76.7694798,21.160087 76.7694798,21.160087 C78.8242369,15.5209644 83.5256648,17.7660506 86.173332,19.6274892 C87.3123172,20.4286652 88.0716407,21.160087 88.0716407,21.160087 C88.0716407,21.160087 81.4340376,22.6209376 82.7613589,26.4713652 L82.7613589,26.4713652 Z" id="bar" sketch:type="MSShapeGroup"></path>
        </g>
    </g>
</svg>