<?xml version="1.0" encoding="utf-8"?>
<!-- Generator: Adobe Illustrator 19.0.1, SVG Export Plug-In . SVG Version: 6.00 Build 0)  -->
<svg version="1.1" id="Layer_1" xmlns="http://www.w3.org/2000/svg" xmlns:xlink="http://www.w3.org/1999/xlink" x="0px" y="0px"
	 viewBox="0 0 137.9 162.8" style="enable-background:new 0 0 137.9 162.8;" xml:space="preserve">
<style type="text/css">
	.st0{fill:#FFFFFF;stroke:#B3B3B3;stroke-width:1.6478;stroke-miterlimit:10;}
</style>
<g>
	<g>
		<path d="M137.9,74.9l-13.8,12.7c-4-2.8-7.5-5.1-12.5-8.3v-0.6c1.1-0.4,1.7-1.6,1.7-2.9c0-0.6,0-1.2-0.2-1.9l-4.1-12.8H80.7
			L77,71.8c5.8,0,9.3,0.9,12.1,2.1l2.5-4.5l1.7,0.9L84,87.7c-3.8-2.2-8.1-3.9-13-3.9c-5.8,0-10.1,1.5-12.3,3.5
			c-0.4,0.4-1.1,0.3-0.8-0.6C60.2,78.7,66,72.5,75,72l19.7-54.7c-2.2-6.4-4.6-7.7-9.6-7.7c-4.6,0-9.1,2.2-9.1,7.8
			c0,2.6,2.6,2.4,2.6,4.3c0,0.7-0.6,1.4-1.5,1.4c-1.7,0-2.8-2.3-2.8-6.7c0-10,7.6-15.9,15.9-15.9c7.6,0,10.5,2.9,12.9,6.1
			c0.7-2.9,3.7-4.3,5.9-4.7l0.2,0.4c-1.4,1.7-2.2,3.3-2.2,5.5c0,1.2,0.8,3.8,1.2,4.7l21.3,61.5l3.8,2.5l3.3-3.1L137.9,74.9z
			 M106.4,53.1L95.5,19.9L83.7,53.1H106.4z"/>
		<path d="M61.6,69.6L51.6,88c-5.4-3.8-14-6.1-21.4-6.1c-14.5,0-24.5,2.6-29.7,5.8L0,87.1c4.6-4,12.3-10.5,12.3-25.2
			c0-6.2-2.5-13.3-4.3-17.9c-2.1-5.3-3.7-8.2-3.7-15.6c0-13,7-20.4,18-25.9l0.9,1c-3.8,3.2-5.6,7.2-6.2,11.3L34.6,0
			c4.5,6.3,8.7,8.8,14.3,8.8c4.5,0,5.8-2,5.8-3.6c0-1.2-1.5-1.3-1.5-2.5c0-1.1,0.8-1.4,1.4-1.4c1.4,0,2.1,1.8,2.1,3.1
			c0,8.9-7.4,15.4-15.3,15.4c-1.4,0-2.4,0.1-3.3,0v48.9c6.8,0,13.9,2.1,19.1,4.7l2.7-4.7L61.6,69.6z M36.3,68.8V19.6
			c-6.9-0.8-10.4-5.8-12.7-8.5l-6.6,5.4c0,7.5,2.2,14,4.8,20c2.3,5.4,4.9,12.5,4.9,17.4c0,8.1-4.5,13.1-15.1,23.1l0.3,0.4
			C18.2,72.6,27.9,69,36.3,68.8z"/>
	</g>
	<g>
		<path d="M93.6,155.7c-1.6,1.4-4.9,4.3-6.4,5.8c-1.4-1.3-4.4-3.6-6.2-4.9v-0.2c0.5-0.2,0.9-0.7,0.9-1.9v-14.1
			c-1.5-1.1-4.2-2.8-5.8-3.8l-1.2,1.2v17.4l2.5,1.9c0,0-3.5,3-5,4.5c-1.4-1.3-3.4-2.9-5.3-4.2v-0.2c0.5-0.2,0.9-0.7,0.9-1.9v-14.8
			c-1.5-1.1-4.2-2.8-5.8-3.8l-1.5,1.3v17.3l2.5,1.9c0,0-3.4,2.8-5,4.4c-1.5-1.4-3.2-2.6-5.3-4.2v-0.1c0.6-0.2,0.9-0.9,0.9-1.7v-17
			l-2-1.8l-1.6,1.4l-0.6-0.7c1.5-1.3,4.3-3.7,6.4-5.8l4.6,4.2v1.2l6.3-5.4c2,1.4,7.9,5.2,7.9,5.2l6-5.2c1.9,1.5,6.4,4.3,8.8,5.7v0.2
			c-0.8,0.2-0.9,1.3-0.9,1.8v15.3l2.6,2l1.5-1.3L93.6,155.7z"/>
		<path d="M49.9,127c-1.6,2.3-3,3.3-5.6,3.3c-1.8,0-3-0.8-4.5-2.5l-1.5,1.4l-0.6-0.8l6.4-5.7c1.8,3.6,3.9,4.1,5.7,4.1L49.9,127z"/>
		<path d="M51.5,155.7c-1.8,1.5-4.8,4.2-6.4,5.8c-1.5-1.4-4.1-3.3-6.2-4.9v-0.2c0.6-0.2,0.9-0.9,0.9-1.7v-16.3l-2-1.8l-1.6,1.4
			l-0.6-0.7c1.5-1.3,4.3-3.7,6.4-5.8l5.5,4.9v0.2c-0.7,0.2-0.9,0.6-0.9,2.1v15.8l2.7,1.9l1.5-1.3L51.5,155.7z"/>
		<path d="M136,154.2c-4,1.7-9.7,4.9-12.5,7.3c-1.4-1.4-3.3-2.6-5.8-2.6c-2.3,0-3.4,0.8-3.4,1.6c0,0.5,1,0.4,1,1.1
			c0,0.3-0.2,0.7-0.7,0.7c-0.6,0-1.2-0.8-1.2-1.8c0-1.8,0.9-3.4,3.8-6.4l5.1-5.3c-2.1-1.1-5.1-2.4-6.9-3.2v-0.2
			c0.5-0.1,0.9-0.7,0.9-1.2v-4.4c0-0.5-0.2-1.2-0.9-1.4v-0.2c4.3-1.5,9.7-4.6,12.9-6.8c0.7,0.8,2.5,2.4,4.5,2.4c1.7,0,2-0.8,2-1.4
			c0-0.3-0.6-0.5-0.6-1c0-0.4,0.2-0.6,0.6-0.6c0.5,0,0.9,0.5,0.9,1.4c0,2.7-2.6,6.4-6.7,6.4c-2.7,0-4.4-1.4-5.6-3.2l-0.1,0.1v6.8
			l3.7,1.8l1.7-1.8c1.8,1.1,5.5,3.1,7.4,3.9v0.2c-0.4,0.2-0.9,0.6-0.9,1.4v4.8c0,0.7,0.6,1.1,0.9,1.3V154.2z M128.3,157.3v-8.2
			c-1-0.5-2.4-1.1-3.4-1.6l-7.9,8.1l0.2,0.1c1.2-0.6,2.2-1.5,4.7-1.5c2.5,0,5,1.8,6.2,3.1L128.3,157.3z"/>
		<path d="M114.4,140.7l-12.1,7.5v5.1c1.5,0.7,4.9,2.3,6.6,3.4l2.6-2.7c0.7-0.7,0.5-1.9,1.7-1.9c0.4,0,0.6,0.2,0.6,0.6
			c0,0.4-0.3,0.6-0.5,0.8l-7.9,7.9c-2.7-1.7-8.2-4.2-10.8-5.4v-0.2c0.4-0.2,1-0.5,1-1.6V140c0-1.2-0.5-1.6-1-1.6v-0.2
			c4.1-1.3,10.3-4.6,13.2-6.7C109.8,134.5,112.5,138.3,114.4,140.7z M108,143.6c-1.4-2-4-5.6-5.5-7.9l-0.2,0.1v11.5L108,143.6z"/>
		<path d="M36.8,123c0,4.1-3,6.2-6.2,6.8v25.6c4.1-2.3,5-4.8,5-6c0-0.3-0.5-0.6-0.5-1.1c0-0.4,0.4-0.7,0.7-0.7
			c0.5,0,0.7,0.4,0.7,1.2c0,6-5.7,14-17.8,14c-9.1,0-16.8-7.1-16.8-16.3c0-13.1,11-17.7,18.7-18.2c-2.8-0.6-7.3-1.6-11-1.6
			c-4.3,0-7.9,2.6-7.9,4.9c0,0.9,0.7,1,0.7,1.7c0,0.3-0.2,0.7-0.6,0.7c-0.7,0-1-0.7-1-1.3c0-5,3.2-12.1,10.8-12.1
			c7.6,0,13.4,2.8,19.3,2.8c3.9,0,5.1-1.4,5-3.7l0.6,0.3C36.5,120.3,36.8,121.5,36.8,123z M29.7,155.7v-25.8c-0.3,0-0.8,0-1.1,0
			c-1.8,0-4.8-0.7-6.8-1.2C15.9,129.8,9,134.8,9,144.2c0,8,5.7,13.2,13.9,13.2C25.6,157.3,28,156.8,29.7,155.7z"/>
		<path d="M27.5,132.2c0,0.3-0.4,0.6-0.7,0.6c-0.4,0-0.8-0.8-2-0.8c-1.8,0-3.3,1.5-3.3,3.3c0,4.7,4.6,6.7,4.6,12.1
			c0,4.5-4.4,7.2-9,7.7l-0.9-0.6c2.5-0.3,3.7-1.2,3.7-4.2c0-4.1-4.2-7.5-4.2-12.3c0-3.9,3.7-7,8.7-7c1,0,2,0.3,2.5,0.6
			C27.2,131.6,27.5,131.9,27.5,132.2z"/>
	</g>
	<line class="st0" x1="0" y1="105.1" x2="136.7" y2="105.1"/>
</g>
</svg>
